<svg xmlns="http://www.w3.org/2000/svg" xmlns:xlink="http://www.w3.org/1999/xlink" width="500" zoomAndPan="magnify" viewBox="0 0 375 374.999991" height="500" preserveAspectRatio="xMidYMid meet" version="1.2"><defs><clipPath id="9ddee41711"><path d="M 112.5 123 L 262.5 123 L 262.5 251 L 112.5 251 Z M 112.5 123 "/></clipPath><clipPath id="f69d2b631e"><path d="M 112.5 117.273438 L 262.5 117.273438 L 262.5 257.523438 L 112.5 257.523438 Z M 112.5 117.273438 "/></clipPath></defs><g id="95b432ba50"><path style=" stroke:none;fill-rule:nonzero;fill:#00d8ff;fill-opacity:1;" d="M 200.894531 187.273438 C 200.894531 188.152344 200.808594 189.023438 200.636719 189.882812 C 200.464844 190.746094 200.210938 191.582031 199.875 192.394531 C 199.539062 193.203125 199.125 193.976562 198.636719 194.707031 C 198.148438 195.4375 197.59375 196.113281 196.972656 196.734375 C 196.351562 197.355469 195.671875 197.90625 194.941406 198.394531 C 194.210938 198.882812 193.4375 199.296875 192.625 199.632812 C 191.8125 199.96875 190.976562 200.222656 190.113281 200.394531 C 189.25 200.566406 188.378906 200.648438 187.5 200.648438 C 186.621094 200.648438 185.75 200.566406 184.886719 200.394531 C 184.023438 200.222656 183.1875 199.96875 182.375 199.632812 C 181.5625 199.296875 180.789062 198.882812 180.058594 198.394531 C 179.328125 197.90625 178.652344 197.355469 178.03125 196.734375 C 177.40625 196.113281 176.851562 195.4375 176.363281 194.707031 C 175.875 193.976562 175.460938 193.203125 175.125 192.394531 C 174.789062 191.582031 174.535156 190.746094 174.363281 189.882812 C 174.191406 189.023438 174.105469 188.152344 174.105469 187.273438 C 174.105469 186.394531 174.191406 185.527344 174.363281 184.664062 C 174.535156 183.804688 174.789062 182.96875 175.125 182.15625 C 175.460938 181.34375 175.875 180.574219 176.363281 179.84375 C 176.851562 179.113281 177.40625 178.4375 178.03125 177.816406 C 178.652344 177.195312 179.328125 176.640625 180.058594 176.152344 C 180.789062 175.664062 181.5625 175.253906 182.375 174.917969 C 183.1875 174.582031 184.023438 174.328125 184.886719 174.15625 C 185.75 173.984375 186.621094 173.898438 187.5 173.898438 C 188.378906 173.898438 189.25 173.984375 190.113281 174.15625 C 190.976562 174.328125 191.8125 174.582031 192.625 174.917969 C 193.4375 175.253906 194.210938 175.664062 194.941406 176.152344 C 195.671875 176.640625 196.351562 177.195312 196.972656 177.816406 C 197.59375 178.4375 198.148438 179.113281 198.636719 179.84375 C 199.125 180.574219 199.539062 181.34375 199.875 182.15625 C 200.210938 182.96875 200.464844 183.804688 200.636719 184.664062 C 200.808594 185.527344 200.894531 186.394531 200.894531 187.273438 Z M 200.894531 187.273438 "/><g clip-rule="nonzero" clip-path="url(#9ddee41711)"><path style="fill:none;stroke-width:24;stroke-linecap:butt;stroke-linejoin:miter;stroke:#00d8ff;stroke-opacity:1;stroke-miterlimit:4;" d="M 269.527042 135.625604 C 336.884251 135.625604 399.457402 145.295219 446.639636 161.543101 C 503.477768 181.102093 538.429196 210.770228 538.429196 237.625384 C 538.429196 265.623313 501.400287 297.137465 440.348671 317.355749 C 394.205179 332.651321 333.475427 340.636078 269.527042 340.636078 C 203.98397 340.636078 141.908244 333.134802 95.238066 317.194589 C 36.190782 297.005606 0.624887 265.081228 0.624887 237.625384 C 0.624887 210.989992 33.996259 181.556272 90.029733 162.011931 C 137.387528 145.500332 201.511475 135.625604 269.527042 135.625604 Z M 269.527042 135.625604 " transform="matrix(0.267,0,0,0.266621,115.53628,123.917452)"/></g><g clip-rule="nonzero" clip-path="url(#f69d2b631e)"><path style="fill:none;stroke-width:24;stroke-linecap:butt;stroke-linejoin:miter;stroke:#00d8ff;stroke-opacity:1;stroke-miterlimit:4;" d="M 180.736662 186.918513 C 214.386007 128.578507 254.019083 79.20487 291.662458 46.445389 C 337.015923 6.975782 380.160235 -8.48095 403.436803 4.939302 C 427.678961 18.91629 436.471681 66.751579 423.494739 129.73593 C 413.692538 177.351455 390.269668 233.948001 358.317421 289.34317 C 325.575146 346.130177 288.078072 396.163106 250.946751 428.600266 C 203.95471 469.681476 158.542725 484.53752 134.754101 470.824249 C 111.682355 457.521204 102.860374 413.905383 113.920768 355.594678 C 123.284064 306.323598 146.765454 245.844556 180.722032 186.933164 Z M 180.736662 186.918513 " transform="matrix(0.267,0,0,0.266621,115.53628,123.917452)"/><path style="fill:none;stroke-width:24;stroke-linecap:butt;stroke-linejoin:miter;stroke:#00d8ff;stroke-opacity:1;stroke-miterlimit:4;" d="M 180.824443 289.475028 C 147.072687 231.193626 124.103352 172.194328 114.505974 123.230917 C 102.962785 64.231619 111.126409 19.121403 134.373717 5.657198 C 158.601245 -8.363743 204.422875 7.89879 252.512177 50.606253 C 288.8681 82.882254 326.204242 131.435438 358.22964 186.772004 C 391.074326 243.500407 415.696869 300.976009 425.264987 349.353382 C 437.393381 410.564971 427.57655 457.330741 403.817187 471.087965 C 380.760071 484.434963 338.566719 470.311466 293.579008 431.589056 C 255.569879 398.873528 214.898062 348.342468 180.809813 289.475028 Z M 180.824443 289.475028 " transform="matrix(0.267,0,0,0.266621,115.53628,123.917452)"/></g></g></svg>