<svg xmlns="http://www.w3.org/2000/svg" xmlns:xlink="http://www.w3.org/1999/xlink" width="500" zoomAndPan="magnify" viewBox="0 0 375 374.999991" height="500" preserveAspectRatio="xMidYMid meet" version="1.2"><defs><clipPath id="52541c9ead"><path d="M 112.5 112.5 L 262 112.5 L 262 262.5 L 112.5 262.5 Z M 112.5 112.5 "/></clipPath></defs><g id="05141f26f2"><g clip-rule="nonzero" clip-path="url(#52541c9ead)"><path style=" stroke:none;fill-rule:nonzero;fill:#3747d6;fill-opacity:1;" d="M 119.289062 112.839844 C 117.339844 112.839844 115.488281 113.675781 114.199219 115.136719 C 112.910156 116.59375 112.3125 118.535156 112.550781 120.46875 L 126.128906 229.066406 C 126.410156 231.316406 127.796875 233.28125 129.828125 234.292969 L 184.125 261.445312 C 186.035156 262.398438 188.285156 262.398438 190.195312 261.445312 L 244.496094 234.292969 C 246.523438 233.28125 247.914062 231.316406 248.195312 229.066406 L 261.769531 120.46875 C 262.011719 118.535156 261.410156 116.59375 260.121094 115.136719 C 258.835938 113.675781 256.980469 112.839844 255.035156 112.839844 Z M 119.289062 112.839844 "/></g><path style=" stroke:none;fill-rule:evenodd;fill:#90caea;fill-opacity:1;" d="M 146.4375 133.203125 L 234.671875 133.203125 C 237.820312 133.203125 240.554688 135.367188 241.277344 138.429688 C 242 141.492188 240.523438 144.652344 237.707031 146.058594 L 188.761719 170.53125 L 227.886719 170.53125 C 229.898438 170.53125 231.804688 171.425781 233.097656 172.96875 C 234.386719 174.515625 234.921875 176.550781 234.5625 178.535156 L 227.773438 215.863281 C 227.425781 217.785156 226.265625 219.464844 224.589844 220.46875 L 190.652344 240.832031 C 188.503906 242.121094 185.820312 242.121094 183.667969 240.832031 L 149.730469 220.46875 C 148.027344 219.445312 146.855469 217.726562 146.53125 215.765625 L 143.136719 195.402344 L 156.527344 193.171875 L 159.402344 210.441406 L 187.160156 227.097656 L 214.96875 210.410156 L 219.753906 184.105469 L 160.011719 184.105469 C 156.863281 184.105469 154.128906 181.941406 153.40625 178.878906 C 152.683594 175.816406 154.160156 172.65625 156.976562 171.25 L 205.921875 146.777344 L 146.4375 146.777344 Z M 146.4375 133.203125 "/></g></svg>