<svg xmlns="http://www.w3.org/2000/svg" xmlns:xlink="http://www.w3.org/1999/xlink" width="500" zoomAndPan="magnify" viewBox="0 0 375 374.999991" height="500" preserveAspectRatio="xMidYMid meet" version="1.2"><defs><clipPath id="ff86c8d2f1"><path d="M 112.5 112.5 L 262.5 112.5 L 262.5 262.5 L 112.5 262.5 Z M 112.5 112.5 "/></clipPath></defs><g id="e30bf2b5d9"><g clip-rule="nonzero" clip-path="url(#ff86c8d2f1)"><path style=" stroke:none;fill-rule:evenodd;fill:#eee400;fill-opacity:1;" d="M 227.460938 250.738281 C 214.375 250.738281 205.910156 244.5 201.785156 236.339844 L 213.261719 229.691406 C 216.285156 234.628906 220.207031 238.25 227.15625 238.25 C 232.992188 238.25 236.71875 235.332031 236.71875 231.304688 C 236.71875 225.246094 228.632812 222.871094 222.925781 220.429688 C 212.757812 216.101562 206.007812 210.664062 206.007812 199.183594 C 206.007812 188.613281 214.0625 180.5625 226.65625 180.5625 C 235.609375 180.5625 242.0625 183.679688 246.6875 191.832031 L 235.714844 198.882812 C 233.296875 194.550781 230.683594 192.84375 226.652344 192.84375 C 222.523438 192.84375 219.902344 195.460938 219.902344 198.882812 C 219.902344 203.113281 222.519531 204.820312 228.5625 207.441406 C 241.230469 212.867188 250.816406 217.136719 250.816406 231.101562 C 250.820312 243.796875 240.855469 250.738281 227.460938 250.738281 Z M 195 229.492188 C 195 244.09375 186.007812 251.8125 173.519531 251.8125 C 162.238281 251.8125 155.484375 247.5 152.160156 240 L 151.964844 240 L 163.429688 231.984375 C 165.644531 235.90625 167.640625 238.6875 172.46875 238.6875 C 177.105469 238.6875 180 236.34375 180 229.300781 L 180 180 L 195 180 Z M 112.5 262.5 L 262.5 262.5 L 262.5 112.5 L 112.5 112.5 Z M 112.5 262.5 "/></g></g></svg>