<svg xmlns="http://www.w3.org/2000/svg" xmlns:xlink="http://www.w3.org/1999/xlink" width="500" zoomAndPan="magnify" viewBox="0 0 375 374.999991" height="500" preserveAspectRatio="xMidYMid meet" version="1.2"><defs><clipPath id="0ddab1d195"><path d="M 112.5 118.78125 L 262 118.78125 L 262 253 L 112.5 253 Z M 112.5 118.78125 "/></clipPath></defs><g id="af8619d7ce"><path style=" stroke:none;fill-rule:nonzero;fill:#000000;fill-opacity:1;" d="M 118.941406 255.828125 L 118.9375 255.777344 L 118.929688 255.757812 Z M 118.941406 255.828125 "/><path style=" stroke:none;fill-rule:nonzero;fill:#41b883;fill-opacity:1;" d="M 116.890625 123.4375 L 187.1875 244.542969 L 257.488281 123.4375 L 229.367188 123.4375 L 187.1875 196.101562 L 144.65625 123.4375 Z M 116.890625 123.4375 "/><path style=" stroke:none;fill-rule:nonzero;fill:#35495e;fill-opacity:1;" d="M 144.65625 123.4375 L 187.1875 196.453125 L 229.371094 123.4375 L 203.359375 123.4375 L 187.1875 151.523438 L 170.664062 123.4375 Z M 144.65625 123.4375 "/><g clip-rule="nonzero" clip-path="url(#0ddab1d195)"><path style=" stroke:none;fill-rule:nonzero;fill:#000000;fill-opacity:1;" d="M 187.1875 252.304688 C 185.503906 252.304688 183.949219 251.398438 183.121094 249.933594 L 113.160156 125.753906 C 112.351562 124.316406 112.363281 122.542969 113.195312 121.117188 C 114.035156 119.6875 115.566406 118.8125 117.226562 118.8125 L 143.769531 118.8125 C 143.9375 118.792969 144.117188 118.78125 144.296875 118.78125 L 170.671875 118.78125 C 172.34375 118.78125 173.878906 119.675781 174.714844 121.117188 L 187.1875 142.777344 L 199.683594 121.117188 C 200.515625 119.675781 202.058594 118.78125 203.726562 118.78125 L 230.097656 118.78125 C 230.296875 118.78125 230.492188 118.792969 230.683594 118.820312 L 257.152344 118.820312 C 258.8125 118.820312 260.34375 119.699219 261.175781 121.121094 C 262.007812 122.550781 262.027344 124.320312 261.210938 125.761719 L 191.25 249.933594 C 190.429688 251.398438 188.875 252.304688 187.1875 252.304688 Z M 125.207031 128.128906 L 187.1875 238.152344 L 249.171875 128.132812 L 230.082031 128.132812 C 229.882812 128.132812 229.6875 128.121094 229.496094 128.097656 L 206.425781 128.097656 L 191.230469 154.433594 C 190.398438 155.882812 188.855469 156.769531 187.1875 156.769531 C 185.515625 156.769531 183.980469 155.875 183.148438 154.433594 L 167.972656 128.097656 L 144.824219 128.097656 C 144.65625 128.117188 144.476562 128.128906 144.296875 128.128906 Z M 125.207031 128.128906 "/></g></g></svg>