<svg xmlns="http://www.w3.org/2000/svg" xmlns:xlink="http://www.w3.org/1999/xlink" width="500" zoomAndPan="magnify" viewBox="0 0 375 374.999991" height="500" preserveAspectRatio="xMidYMid meet" version="1.2"><defs><clipPath id="6739a52d22"><path d="M 112.5 112.5 L 262.5 112.5 L 262.5 262.5 L 112.5 262.5 Z M 112.5 112.5 "/></clipPath></defs><g id="a627138f4a"><g clip-rule="nonzero" clip-path="url(#6739a52d22)"><path style=" stroke:none;fill-rule:nonzero;fill:#007acc;fill-opacity:1;" d="M 112.5 262.5 L 262.5 262.5 L 262.5 112.5 L 112.5 112.5 Z M 112.5 262.5 "/></g><path style=" stroke:none;fill-rule:nonzero;fill:#ffffff;fill-opacity:1;" d="M 145.664062 187.992188 L 145.617188 194.136719 L 165.140625 194.136719 L 165.140625 249.613281 L 178.949219 249.613281 L 178.949219 194.136719 L 198.472656 194.136719 L 198.472656 188.113281 C 198.472656 184.78125 198.402344 181.992188 198.308594 181.921875 C 198.238281 181.828125 186.355469 181.78125 171.949219 181.804688 L 145.734375 181.875 Z M 145.664062 187.992188 "/><path style=" stroke:none;fill-rule:nonzero;fill:#ffffff;fill-opacity:1;" d="M 233.535156 181.703125 C 237.34375 182.652344 240.25 184.347656 242.917969 187.105469 C 244.292969 188.582031 246.34375 191.273438 246.507812 191.917969 C 246.554688 192.109375 240.035156 196.488281 236.078125 198.941406 C 235.9375 199.035156 235.371094 198.414062 234.726562 197.464844 C 232.796875 194.652344 230.769531 193.441406 227.675781 193.230469 C 223.128906 192.917969 220.199219 195.296875 220.222656 199.277344 C 220.222656 200.441406 220.394531 201.132812 220.867188 202.082031 C 221.871094 204.15625 223.730469 205.394531 229.558594 207.917969 C 240.300781 212.535156 244.890625 215.582031 247.753906 219.917969 C 250.941406 224.753906 251.65625 232.464844 249.488281 238.199219 C 247.109375 244.441406 241.203125 248.675781 232.894531 250.082031 C 230.320312 250.535156 224.226562 250.464844 221.460938 249.964844 C 215.4375 248.894531 209.726562 245.917969 206.203125 242.015625 C 204.820312 240.492188 202.132812 236.511719 202.296875 236.226562 C 202.371094 236.132812 202.988281 235.75 203.679688 235.347656 C 204.347656 234.964844 206.871094 233.511719 209.25 232.128906 L 213.558594 229.632812 L 214.464844 230.964844 C 215.726562 232.890625 218.492188 235.535156 220.15625 236.417969 C 224.941406 238.9375 231.511719 238.582031 234.75 235.679688 C 236.132812 234.414062 236.703125 233.109375 236.703125 231.179688 C 236.703125 229.441406 236.492188 228.679688 235.582031 227.371094 C 234.417969 225.703125 232.039062 224.296875 225.277344 221.371094 C 217.535156 218.039062 214.203125 215.964844 211.15625 212.675781 C 209.390625 210.773438 207.726562 207.726562 207.035156 205.175781 C 206.460938 203.0625 206.320312 197.753906 206.773438 195.609375 C 208.371094 188.132812 214.015625 182.917969 222.152344 181.371094 C 224.796875 180.871094 230.941406 181.058594 233.539062 181.703125 Z M 233.535156 181.703125 "/></g></svg>