<svg xmlns="http://www.w3.org/2000/svg" xmlns:xlink="http://www.w3.org/1999/xlink" width="500" zoomAndPan="magnify" viewBox="0 0 375 374.999991" height="500" preserveAspectRatio="xMidYMid meet" version="1.2"><defs><clipPath id="fe66b0891a"><path d="M 114.5625 112.5 L 175 112.5 L 175 150 L 114.5625 150 Z M 114.5625 112.5 "/></clipPath><clipPath id="2ed491b3ef"><path d="M 114.5625 128 L 175 128 L 175 262.5 L 114.5625 262.5 Z M 114.5625 128 "/></clipPath><clipPath id="b14aed182b"><path d="M 170 194 L 233 194 L 233 262.5 L 170 262.5 Z M 170 194 "/></clipPath><clipPath id="37fe3f55f7"><path d="M 228 145 L 260.8125 145 L 260.8125 199 L 228 199 Z M 228 145 "/></clipPath><clipPath id="f1ece82696"><path d="M 199 129 L 260.8125 129 L 260.8125 166 L 199 166 Z M 199 129 "/></clipPath></defs><g id="18336b7255"><g clip-rule="nonzero" clip-path="url(#fe66b0891a)"><path style=" stroke:none;fill-rule:nonzero;fill:#ef0a1b;fill-opacity:1;" d="M 144.914062 149.328125 C 144.558594 149.328125 144.222656 149.238281 143.914062 149.058594 L 143.71875 148.945312 L 115.601562 132.6875 C 115.449219 132.597656 115.3125 132.496094 115.191406 132.371094 C 115.066406 132.25 114.960938 132.113281 114.875 131.964844 C 114.789062 131.8125 114.722656 131.65625 114.675781 131.488281 C 114.628906 131.320312 114.605469 131.148438 114.605469 130.976562 C 114.605469 130.800781 114.625 130.632812 114.667969 130.464844 C 114.710938 130.296875 114.777344 130.136719 114.863281 129.984375 C 114.945312 129.832031 115.050781 129.695312 115.171875 129.570312 C 115.292969 129.449219 115.429688 129.339844 115.578125 129.25 L 143.03125 112.878906 C 143.347656 112.691406 143.6875 112.597656 144.058594 112.597656 C 144.425781 112.597656 144.769531 112.691406 145.085938 112.878906 L 173.0625 129.609375 C 173.210938 129.695312 173.34375 129.804688 173.464844 129.925781 C 173.585938 130.050781 173.6875 130.1875 173.773438 130.335938 C 173.859375 130.488281 173.921875 130.648438 173.964844 130.8125 C 174.011719 130.980469 174.03125 131.152344 174.03125 131.324219 C 174.03125 131.496094 174.007812 131.664062 173.964844 131.832031 C 173.917969 132 173.855469 132.15625 173.769531 132.308594 C 173.683594 132.457031 173.578125 132.59375 173.457031 132.714844 C 173.335938 132.839844 173.199219 132.945312 173.050781 133.03125 L 145.933594 149.046875 C 145.617188 149.234375 145.28125 149.328125 144.914062 149.328125 Z M 120.542969 130.933594 L 144.902344 145.023438 L 168.128906 131.308594 L 144.054688 116.914062 Z M 120.542969 130.933594 "/></g><g clip-rule="nonzero" clip-path="url(#2ed491b3ef)"><path style=" stroke:none;fill-rule:nonzero;fill:#ef0a1b;fill-opacity:1;" d="M 172.832031 262.5 C 172.488281 262.5 172.164062 262.417969 171.863281 262.25 L 115.632812 231.113281 C 115.316406 230.9375 115.066406 230.695312 114.878906 230.382812 C 114.695312 230.070312 114.605469 229.734375 114.605469 229.371094 L 114.605469 130.960938 C 114.605469 130.605469 114.695312 130.273438 114.871094 129.964844 C 115.050781 129.65625 115.296875 129.414062 115.605469 129.234375 C 115.914062 129.058594 116.25 128.96875 116.605469 128.96875 C 116.964844 128.96875 117.296875 129.058594 117.605469 129.238281 L 145.71875 145.496094 C 146.027344 145.671875 146.273438 145.917969 146.449219 146.222656 C 146.628906 146.53125 146.714844 146.863281 146.714844 147.21875 L 146.714844 211.695312 L 173.839844 227.457031 C 174.144531 227.636719 174.386719 227.878906 174.566406 228.1875 C 174.742188 228.492188 174.832031 228.824219 174.832031 229.179688 L 174.832031 260.507812 C 174.832031 260.769531 174.78125 261.023438 174.679688 261.269531 C 174.578125 261.511719 174.433594 261.730469 174.246094 261.917969 C 174.058594 262.101562 173.84375 262.246094 173.597656 262.347656 C 173.351562 262.449219 173.097656 262.5 172.832031 262.5 Z M 118.601562 228.199219 L 170.835938 257.121094 L 170.835938 230.324219 L 143.710938 214.566406 C 143.40625 214.386719 143.164062 214.144531 142.984375 213.835938 C 142.808594 213.527344 142.71875 213.199219 142.71875 212.84375 L 142.71875 148.367188 L 118.601562 134.421875 Z M 118.601562 228.199219 "/></g><path style=" stroke:none;fill-rule:nonzero;fill:#ef0a1b;fill-opacity:1;" d="M 144.71875 214.835938 C 144.453125 214.835938 144.199219 214.785156 143.953125 214.683594 C 143.707031 214.582031 143.492188 214.4375 143.304688 214.25 C 143.117188 214.066406 142.972656 213.847656 142.871094 213.605469 C 142.769531 213.359375 142.71875 213.105469 142.71875 212.84375 L 142.71875 147.21875 C 142.71875 146.96875 142.765625 146.730469 142.855469 146.496094 C 142.945312 146.265625 143.078125 146.054688 143.246094 145.871094 C 143.414062 145.6875 143.613281 145.539062 143.835938 145.429688 C 144.0625 145.320312 144.296875 145.253906 144.546875 145.234375 L 171.015625 129.601562 C 171.167969 129.511719 171.328125 129.445312 171.496094 129.398438 C 171.664062 129.351562 171.835938 129.328125 172.011719 129.324219 C 172.1875 129.324219 172.359375 129.34375 172.527344 129.386719 C 172.699219 129.429688 172.859375 129.496094 173.011719 129.582031 C 173.164062 129.664062 173.304688 129.769531 173.429688 129.890625 C 173.554688 130.015625 173.664062 130.148438 173.753906 130.300781 C 173.84375 130.449219 173.910156 130.609375 173.957031 130.777344 C 174.003906 130.945312 174.03125 131.117188 174.03125 131.292969 L 174.832031 196.097656 C 174.835938 196.453125 174.75 196.785156 174.578125 197.097656 C 174.402344 197.40625 174.164062 197.652344 173.855469 197.835938 L 145.742188 214.554688 C 145.425781 214.742188 145.085938 214.835938 144.71875 214.835938 Z M 146.714844 148.585938 L 146.714844 209.332031 L 170.820312 195 L 170.078125 134.789062 Z M 146.714844 148.585938 "/><g clip-rule="nonzero" clip-path="url(#b14aed182b)"><path style=" stroke:none;fill-rule:nonzero;fill:#ef0a1b;fill-opacity:1;" d="M 172.832031 262.5 C 172.566406 262.5 172.3125 262.449219 172.070312 262.347656 C 171.824219 262.246094 171.609375 262.101562 171.421875 261.917969 C 171.234375 261.730469 171.089844 261.515625 170.988281 261.269531 C 170.886719 261.027344 170.835938 260.769531 170.835938 260.507812 L 170.835938 229.179688 C 170.835938 228.820312 170.925781 228.488281 171.105469 228.179688 C 171.285156 227.871094 171.53125 227.625 171.839844 227.449219 L 229.070312 194.777344 C 229.222656 194.691406 229.382812 194.625 229.550781 194.578125 C 229.71875 194.535156 229.890625 194.511719 230.066406 194.511719 C 230.242188 194.511719 230.414062 194.535156 230.582031 194.582031 C 230.753906 194.628906 230.914062 194.695312 231.0625 194.78125 C 231.214844 194.871094 231.351562 194.976562 231.476562 195.097656 C 231.601562 195.222656 231.707031 195.359375 231.792969 195.511719 C 231.878906 195.664062 231.945312 195.824219 231.992188 195.992188 C 232.039062 196.160156 232.058594 196.332031 232.058594 196.507812 L 232.058594 229.179688 C 232.058594 229.542969 231.96875 229.882812 231.78125 230.195312 C 231.59375 230.507812 231.34375 230.75 231.023438 230.925781 L 173.792969 262.253906 C 173.496094 262.417969 173.175781 262.5 172.832031 262.5 Z M 174.832031 230.335938 L 174.832031 257.140625 L 228.0625 228 L 228.0625 199.945312 Z M 174.832031 230.335938 "/></g><path style=" stroke:none;fill-rule:nonzero;fill:#ef0a1b;fill-opacity:1;" d="M 172.832031 231.171875 C 172.472656 231.171875 172.136719 231.082031 171.828125 230.902344 L 143.710938 214.566406 C 143.5625 214.476562 143.425781 214.371094 143.304688 214.25 C 143.179688 214.125 143.074219 213.992188 142.988281 213.839844 C 142.902344 213.691406 142.835938 213.53125 142.789062 213.363281 C 142.742188 213.195312 142.722656 213.027344 142.71875 212.851562 C 142.71875 212.679688 142.742188 212.507812 142.785156 212.339844 C 142.828125 212.171875 142.894531 212.011719 142.976562 211.863281 C 143.0625 211.710938 143.167969 211.574219 143.289062 211.449219 C 143.410156 211.324219 143.546875 211.21875 143.695312 211.128906 L 171.808594 194.410156 C 171.832031 194.398438 171.851562 194.386719 171.875 194.375 L 200.390625 178.804688 C 200.691406 178.640625 201.015625 178.558594 201.359375 178.5625 C 201.703125 178.5625 202.023438 178.648438 202.324219 178.8125 L 231.035156 194.765625 C 231.347656 194.941406 231.597656 195.183594 231.78125 195.492188 C 231.964844 195.800781 232.058594 196.136719 232.058594 196.496094 C 232.0625 196.855469 231.972656 197.1875 231.792969 197.5 C 231.613281 197.8125 231.367188 198.058594 231.054688 198.234375 L 173.824219 230.910156 C 173.519531 231.085938 173.1875 231.171875 172.832031 231.171875 Z M 148.652344 212.824219 L 172.84375 226.878906 L 225.996094 196.53125 L 201.34375 182.832031 L 173.824219 197.851562 Z M 148.652344 212.824219 "/><path style=" stroke:none;fill-rule:nonzero;fill:#ef0a1b;fill-opacity:1;" d="M 230.0625 198.5 C 229.714844 198.5 229.390625 198.414062 229.089844 198.246094 L 200.378906 182.296875 C 200.0625 182.117188 199.808594 181.875 199.625 181.5625 C 199.441406 181.25 199.351562 180.910156 199.351562 180.546875 L 199.449219 147.328125 C 199.449219 147.152344 199.472656 146.980469 199.519531 146.8125 C 199.5625 146.644531 199.628906 146.484375 199.71875 146.335938 C 199.804688 146.183594 199.910156 146.046875 200.035156 145.921875 C 200.160156 145.800781 200.296875 145.695312 200.445312 145.609375 C 200.597656 145.519531 200.757812 145.453125 200.925781 145.410156 C 201.097656 145.363281 201.265625 145.339844 201.441406 145.339844 C 201.617188 145.339844 201.789062 145.363281 201.957031 145.40625 C 202.125 145.449219 202.289062 145.515625 202.4375 145.601562 L 231.050781 161.910156 C 231.363281 162.089844 231.609375 162.332031 231.789062 162.640625 C 231.96875 162.949219 232.058594 163.285156 232.058594 163.640625 L 232.058594 196.507812 C 232.058594 196.769531 232.007812 197.023438 231.90625 197.269531 C 231.804688 197.511719 231.660156 197.730469 231.472656 197.914062 C 231.289062 198.101562 231.070312 198.246094 230.828125 198.347656 C 230.582031 198.449219 230.328125 198.5 230.0625 198.5 Z M 203.351562 179.386719 L 228.0625 193.113281 L 228.0625 164.796875 L 203.4375 150.761719 Z M 203.351562 179.386719 "/><g clip-rule="nonzero" clip-path="url(#37fe3f55f7)"><path style=" stroke:none;fill-rule:nonzero;fill:#ef0a1b;fill-opacity:1;" d="M 230.0625 198.5 C 229.796875 198.5 229.542969 198.449219 229.296875 198.347656 C 229.050781 198.246094 228.835938 198.101562 228.648438 197.914062 C 228.460938 197.730469 228.316406 197.511719 228.214844 197.269531 C 228.113281 197.023438 228.0625 196.769531 228.0625 196.507812 L 228.0625 163.640625 C 228.0625 163.285156 228.152344 162.949219 228.332031 162.640625 C 228.515625 162.332031 228.761719 162.085938 229.074219 161.910156 L 257.78125 145.601562 C 257.933594 145.515625 258.097656 145.449219 258.265625 145.40625 C 258.433594 145.363281 258.605469 145.339844 258.78125 145.339844 C 258.957031 145.339844 259.128906 145.363281 259.296875 145.410156 C 259.464844 145.457031 259.625 145.523438 259.777344 145.609375 C 259.925781 145.699219 260.066406 145.804688 260.1875 145.925781 C 260.3125 146.050781 260.417969 146.1875 260.503906 146.339844 C 260.589844 146.492188 260.65625 146.652344 260.703125 146.820312 C 260.746094 146.988281 260.769531 147.160156 260.769531 147.332031 L 260.769531 180.554688 C 260.769531 180.914062 260.679688 181.253906 260.496094 181.5625 C 260.3125 181.875 260.0625 182.121094 259.746094 182.296875 L 231.035156 198.246094 C 230.730469 198.414062 230.40625 198.5 230.0625 198.5 Z M 232.058594 164.800781 L 232.058594 193.113281 L 256.773438 179.382812 L 256.773438 150.761719 Z M 232.058594 164.800781 "/></g><g clip-rule="nonzero" clip-path="url(#f1ece82696)"><path style=" stroke:none;fill-rule:nonzero;fill:#ef0a1b;fill-opacity:1;" d="M 230.0625 165.636719 C 229.707031 165.636719 229.378906 165.546875 229.070312 165.371094 L 200.457031 149.0625 C 200.144531 148.886719 199.898438 148.640625 199.71875 148.332031 C 199.539062 148.019531 199.449219 147.683594 199.449219 147.324219 C 199.449219 146.964844 199.542969 146.632812 199.726562 146.324219 C 199.90625 146.011719 200.15625 145.769531 200.46875 145.59375 L 229.082031 129.578125 C 229.386719 129.410156 229.710938 129.324219 230.058594 129.324219 C 230.40625 129.324219 230.734375 129.410156 231.035156 129.578125 L 259.746094 145.59375 C 260.0625 145.769531 260.3125 146.011719 260.492188 146.320312 C 260.675781 146.632812 260.769531 146.964844 260.769531 147.324219 C 260.773438 147.683594 260.683594 148.019531 260.5 148.332031 C 260.320312 148.644531 260.074219 148.886719 259.761719 149.066406 L 231.050781 165.375 C 230.742188 165.546875 230.414062 165.636719 230.0625 165.636719 Z M 205.503906 147.347656 L 230.0625 161.347656 L 254.707031 147.347656 L 230.0625 133.601562 Z M 205.503906 147.347656 "/></g></g></svg>